<?xml version="1.0" encoding="UTF-8"?> <svg xmlns="http://www.w3.org/2000/svg" width="25" height="24" viewBox="0 0 25 24" fill="none"><rect x="0.617072" y="0.617072" width="22.7659" height="22.7659" rx="11.3829" transform="matrix(-4.37092e-08 1 1 4.37136e-08 0.5 2.69717e-08)" fill="url(#paint0_linear_980_11894)" stroke="url(#paint1_linear_980_11894)" stroke-width="1.23414"></rect><mask id="mask0_980_11894" style="mask-type:luminance" maskUnits="userSpaceOnUse" x="8" y="7" width="9" height="11"><path fill-rule="evenodd" clip-rule="evenodd" d="M8.13672 17.7463L13.9372 7.09839H16.7882L10.8895 17.7463H8.13672Z" fill="white"></path></mask><g mask="url(#mask0_980_11894)"><path fill-rule="evenodd" clip-rule="evenodd" d="M8.13477 17.7539H16.7894V7.09839H8.13477V17.7539Z" fill="#18162F"></path></g><mask id="mask1_980_11894" style="mask-type:luminance" maskUnits="userSpaceOnUse" x="5" y="12" width="6" height="6"><path fill-rule="evenodd" clip-rule="evenodd" d="M5.19141 12.4224H8.04249L10.8935 17.7463H8.04249L5.19141 12.4224Z" fill="white"></path></mask><g mask="url(#mask1_980_11894)"><path fill-rule="evenodd" clip-rule="evenodd" d="M5.19141 17.7529H10.8978V12.4163H5.19141V17.7529Z" fill="#18162F"></path></g><mask id="mask2_980_11894" style="mask-type:luminance" maskUnits="userSpaceOnUse" x="13" y="12" width="7" height="6"><path fill-rule="evenodd" clip-rule="evenodd" d="M16.7905 17.7461H13.9395L16.7905 12.4221H19.6416L16.7905 17.7461Z" fill="white"></path></mask><g mask="url(#mask2_980_11894)"><path fill-rule="evenodd" clip-rule="evenodd" d="M13.9355 17.7524H19.642V12.4158H13.9355V17.7524Z" fill="#18162F"></path></g><mask id="mask3_980_11894" style="mask-type:luminance" maskUnits="userSpaceOnUse" x="5" y="7" width="6" height="6"><path fill-rule="evenodd" clip-rule="evenodd" d="M5.19141 12.4223L8.04249 7.09839H10.8935L8.04249 12.4223H5.19141Z" fill="white"></path></mask><g mask="url(#mask3_980_11894)"><path fill-rule="evenodd" clip-rule="evenodd" d="M5.19141 12.4252H10.8978V7.09741H5.19141V12.4252Z" fill="#18162F"></path></g><mask id="mask4_980_11894" style="mask-type:luminance" maskUnits="userSpaceOnUse" x="13" y="7" width="7" height="6"><path fill-rule="evenodd" clip-rule="evenodd" d="M16.7905 7.09839L19.6416 12.4223H16.7905L13.9395 7.09839H16.7905Z" fill="white"></path></mask><g mask="url(#mask4_980_11894)"><path fill-rule="evenodd" clip-rule="evenodd" d="M13.9355 12.4262H19.642V7.09839H13.9355V12.4262Z" fill="#18162F"></path></g><defs><linearGradient id="paint0_linear_980_11894" x1="7.125" y1="-7.75" x2="15.3845" y2="55.4575" gradientUnits="userSpaceOnUse"><stop stop-color="#39EFD2"></stop><stop offset="1" stop-color="#2E91E1"></stop></linearGradient><linearGradient id="paint1_linear_980_11894" x1="12" y1="0" x2="12" y2="24" gradientUnits="userSpaceOnUse"><stop stop-color="#4EFFF7"></stop><stop offset="1" stop-color="#4EFFF7" stop-opacity="0"></stop></linearGradient></defs></svg> 